<svg width="309" height="58" viewBox="0 0 309 58" fill="none" xmlns="http://www.w3.org/2000/svg">
<path d="M4.14724 14.8729V14.3621L4.59669 14.3213C5.15511 14.2668 5.57732 14.1987 5.86334 14.117C6.16298 14.0216 6.36727 13.8309 6.47623 13.5449C6.59881 13.2453 6.6601 12.7618 6.6601 12.0944V0.85805H3.7795C3.15299 0.85805 2.65587 0.980628 2.28813 1.22579C1.93402 1.45732 1.62076 1.83868 1.34836 2.36985C1.08959 2.90102 0.78314 3.60926 0.429025 4.49455L0 4.3924L0.510744 1.87954L0.735471 0.245156L6.55795 0.306446H8.49878L14.3417 0.245156L14.5664 1.87954L15.0772 4.3924L14.6277 4.51498C14.3144 3.72502 14.0216 3.05765 13.7492 2.51286C13.4904 1.96807 13.184 1.55947 12.8299 1.28707C12.4758 1.00106 12.0059 0.85805 11.4202 0.85805H8.39663V12.0944C8.39663 12.7618 8.45111 13.2453 8.56007 13.5449C8.68264 13.8309 8.89375 14.0216 9.19339 14.117C9.49302 14.1987 9.91524 14.2668 10.46 14.3213L10.9095 14.3621V14.8729L7.57944 14.8116L4.14724 14.8729Z" fill="black"/>
<path d="M15.4478 14.8729V14.403L15.7746 14.3621C16.1696 14.3076 16.4693 14.2463 16.6736 14.1782C16.8915 14.0965 17.0413 13.9263 17.123 13.6675C17.2047 13.3951 17.2456 12.9525 17.2456 12.3396V2.36985C17.2456 1.66162 17.0958 1.21217 16.7961 1.02149C16.5101 0.81719 16.1083 0.715041 15.5908 0.715041H15.4478V0.245156C16.0062 0.245156 16.5442 0.231537 17.0617 0.204297C17.5793 0.163438 18.1173 0.0953384 18.6757 0V7.31385C18.9889 6.85078 19.4316 6.44218 20.0036 6.08807C20.5756 5.72033 21.243 5.53646 22.0057 5.53646C22.9319 5.53646 23.6605 5.77481 24.1917 6.2515C24.7365 6.71458 25.0089 7.38195 25.0089 8.25362V12.3396C25.0089 12.9525 25.0497 13.3951 25.1315 13.6675C25.2132 13.9263 25.3562 14.0965 25.5605 14.1782C25.7784 14.2463 26.0849 14.3076 26.4798 14.3621L26.8067 14.403V14.8729L24.2938 14.8116L21.781 14.8729V14.403L22.1079 14.3621C22.5028 14.3076 22.8025 14.2463 23.0068 14.1782C23.2247 14.0965 23.3745 13.9263 23.4562 13.6675C23.5379 13.3951 23.5788 12.9525 23.5788 12.3396V8.25362C23.5788 7.57263 23.4017 7.05507 23.0476 6.70096C22.6935 6.33322 22.1964 6.14936 21.5563 6.14936C21.0659 6.14936 20.6233 6.26512 20.2283 6.49666C19.8334 6.71458 19.5065 6.98698 19.2477 7.31385C18.9889 7.64073 18.7982 7.95398 18.6757 8.25362V12.3396C18.6757 12.9525 18.7165 13.3951 18.7982 13.6675C18.88 13.9263 19.023 14.0965 19.2273 14.1782C19.4452 14.2463 19.7516 14.3076 20.1466 14.3621L20.4735 14.403V14.8729L17.9606 14.8116L15.4478 14.8729Z" fill="black"/>
<path d="M32.4255 15.0363C31.5266 15.0363 30.7435 14.8456 30.0761 14.4643C29.4087 14.0693 28.8844 13.5313 28.503 12.8503C28.1353 12.1557 27.9514 11.3658 27.9514 10.4805C27.9514 9.52707 28.1557 8.68264 28.5643 7.94717C28.9729 7.19808 29.5177 6.61243 30.1987 6.19021C30.8933 5.75438 31.656 5.53646 32.4868 5.53646C33.5355 5.53646 34.3527 5.87015 34.9384 6.53752C35.5377 7.20489 35.8373 8.08337 35.8373 9.17296C35.8373 9.3364 35.8305 9.4726 35.8169 9.58155C35.8032 9.69051 35.7896 9.76542 35.776 9.80628H29.6062C29.5926 9.99696 29.5858 10.1876 29.5858 10.3783C29.5858 11.1002 29.7016 11.7743 29.9331 12.4009C30.1646 13.0138 30.5119 13.5041 30.975 13.8718C31.4517 14.2395 32.0306 14.4234 32.7115 14.4234C33.3517 14.4234 33.9169 14.2463 34.4072 13.8922C34.9111 13.5245 35.2993 12.9865 35.5717 12.2783L36.062 12.4621C35.49 14.1782 34.2778 15.0363 32.4255 15.0363ZM32.4868 6.04721C31.6424 6.04721 30.9818 6.34684 30.5051 6.94612C30.0421 7.54539 29.756 8.34215 29.6471 9.3364H32.2417C32.8546 9.3364 33.3176 9.2683 33.6309 9.1321C33.9578 8.98228 34.1757 8.80522 34.2846 8.60093C34.4072 8.38301 34.4685 8.1719 34.4685 7.9676C34.4685 7.36833 34.2642 6.89845 33.8556 6.55795C33.447 6.21745 32.9908 6.04721 32.4868 6.04721Z" fill="black"/>
<path d="M80.4964 57.2033C77.6359 57.2033 75.5035 56.2447 74.0993 54.3276C72.7471 52.3586 71.8629 49.9493 71.4468 47.0995C71.1868 45.0269 70.7707 42.9543 70.1986 40.8817C69.6785 38.8091 68.8204 36.9179 67.6242 35.208C66.48 33.4463 64.8417 32.0473 62.7094 31.011C60.629 29.9747 57.8985 29.4566 54.5179 29.4566H51.1634V46.0114C51.1634 48.5503 51.3454 50.3897 51.7095 51.5296C52.0735 52.6177 52.7496 53.3431 53.7378 53.7058C54.726 54.0167 56.1042 54.2758 57.8725 54.483L59.4328 54.6385V56.5815L47.8868 56.3484H47.8088L36.2628 56.5815V54.6385L37.8231 54.483C39.6434 54.2758 41.0216 54.0167 41.9578 53.7058C42.946 53.3431 43.6221 52.6177 43.9861 51.5296C44.3502 50.3897 44.5322 48.5503 44.5322 46.0114V11.5028C44.5322 8.91211 44.3502 7.07269 43.9861 5.98459C43.6221 4.89648 42.946 4.19698 41.9578 3.88609C41.0216 3.52339 39.6434 3.23841 37.8231 3.03115L36.2628 2.87571V0.93266L47.8088 1.16583H58.7307C62.2673 1.16583 65.5438 1.58034 68.5604 2.40938C71.5769 3.1866 73.9953 4.55968 75.8156 6.52864C77.6879 8.49759 78.6241 11.2438 78.6241 14.7672C78.6241 17.876 77.922 20.4149 76.5177 22.3839C75.1655 24.301 73.3452 25.7778 71.0568 26.814C68.8204 27.7985 66.376 28.498 63.7235 28.9125C67.5722 29.1716 70.6927 30.4929 73.0851 32.8764C75.5295 35.208 77.0898 38.6537 77.7659 43.2134C78.234 46.115 78.8061 48.3948 79.4822 50.0529C80.2104 51.6591 80.9905 52.7991 81.8226 53.4727C82.7068 54.0944 83.5909 54.4053 84.4751 54.4053C85.0472 54.4053 85.5933 54.3017 86.1134 54.0944C86.6855 53.8872 87.1795 53.6799 87.5956 53.4727L88.1417 55.4157C87.3096 55.8302 86.1914 56.2188 84.7871 56.5815C83.3829 56.996 81.9527 57.2033 80.4964 57.2033ZM58.8867 3.1866H51.1634V27.3581H57.7165C62.7094 27.3581 66.1939 26.3477 68.1703 24.3269C70.1986 22.3062 71.2128 19.275 71.2128 15.2335C71.2128 11.3992 70.3027 8.44578 68.4823 6.3732C66.662 4.2488 63.4635 3.1866 58.8867 3.1866Z" fill="black"/>
<path d="M99.9461 57.2033C97.4497 57.2033 95.3693 56.5815 93.705 55.338C92.0928 54.0426 91.2866 52.255 91.2866 49.9752C91.2866 47.6953 92.3008 45.6746 94.3291 43.9129C96.3575 42.0993 98.7239 40.4672 101.428 39.0164C103.457 37.8765 105.485 36.892 107.513 36.063C109.542 35.2339 111.284 34.5344 112.74 33.9645V31.4774C112.74 28.6276 112.194 26.5032 111.102 25.1042C110.062 23.7052 108.06 23.0057 105.095 23.0057C103.691 23.0057 102.313 23.187 100.96 23.5497C99.6081 23.9124 98.9319 24.586 98.9319 25.5705C98.9319 25.7778 98.9579 26.0109 99.0099 26.27C99.114 26.5291 99.192 26.7881 99.244 27.0472C99.504 27.7208 99.6341 28.4203 99.6341 29.1457C99.6341 30.1302 99.27 30.9074 98.5419 31.4774C97.8658 31.9955 97.0336 32.2546 96.0454 32.2546C95.1093 32.2546 94.3291 31.9178 93.705 31.2442C93.0809 30.5188 92.7689 29.6639 92.7689 28.6794C92.7689 26.814 93.471 25.3373 94.8752 24.2492C96.3315 23.1093 98.0998 22.3062 100.18 21.8398C102.261 21.3217 104.263 21.0626 106.187 21.0626C110.348 21.0626 113.39 22.0212 115.315 23.9383C117.239 25.8555 118.201 28.9903 118.201 33.3427V47.3326C118.201 49.6125 118.357 51.3742 118.669 52.6177C119.033 53.8613 119.814 54.483 121.01 54.483C121.79 54.483 122.466 54.1981 123.038 53.6281C123.61 53.0581 124 52.4364 124.208 51.7628L125.613 52.3068C125.196 53.8094 124.442 55.0012 123.35 55.882C122.31 56.7629 120.854 57.2033 118.981 57.2033C116.693 57.2033 115.107 56.5556 114.223 55.2603C113.39 53.9131 112.922 52.1514 112.818 49.9752C111.362 52.3068 109.516 54.0944 107.279 55.338C105.043 56.5815 102.599 57.2033 99.9461 57.2033ZM97.3717 49.5866C97.3717 51.0374 97.7877 52.2032 98.6199 53.084C99.504 53.9131 100.778 54.3276 102.443 54.3276C103.951 54.3276 105.381 53.9649 106.733 53.2395C108.138 52.5141 109.36 51.6073 110.4 50.5192C111.44 49.3793 112.22 48.1617 112.74 46.8663V35.5189C111.024 36.2443 109.256 37.0992 107.435 38.0837C105.667 39.0164 104.003 40.0786 102.443 41.2703C100.934 42.4621 99.7121 43.7574 98.7759 45.1564C97.8398 46.5036 97.3717 47.9803 97.3717 49.5866Z" fill="black"/>
<path d="M127.815 56.5815V54.7939L129.063 54.6385C130.572 54.4312 131.716 54.1981 132.496 53.939C133.328 53.6281 133.9 52.9804 134.212 51.9959C134.524 50.9596 134.68 49.2757 134.68 46.944V30.5447C134.68 27.8503 134.108 26.1405 132.964 25.4151C131.872 24.6378 130.338 24.2492 128.361 24.2492H127.815V22.4616C129.948 22.4616 132.002 22.4098 133.978 22.3062C135.955 22.1507 138.009 21.8917 140.141 21.529V27.8244C141.337 26.0627 143.028 24.5083 145.212 23.1611C147.397 21.7621 149.945 21.0626 152.857 21.0626C156.394 21.0626 159.177 21.9694 161.205 23.7829C163.285 25.5446 164.325 28.0835 164.325 31.3996V46.944C164.325 49.2757 164.481 50.9596 164.794 51.9959C165.106 52.9804 165.652 53.6281 166.432 53.939C167.264 54.1981 168.434 54.4312 169.942 54.6385L171.191 54.7939V56.5815L161.595 56.3484L151.999 56.5815V54.7939L153.248 54.6385C154.756 54.4312 155.9 54.1981 156.68 53.939C157.512 53.6281 158.084 52.9804 158.396 51.9959C158.708 50.9596 158.864 49.2757 158.864 46.944V31.3996C158.864 28.8089 158.188 26.84 156.836 25.4928C155.484 24.0938 153.586 23.3943 151.141 23.3943C149.269 23.3943 147.579 23.8347 146.07 24.7156C144.562 25.5446 143.314 26.5809 142.326 27.8244C141.337 29.068 140.609 30.2597 140.141 31.3996V46.944C140.141 49.2757 140.297 50.9596 140.609 51.9959C140.921 52.9804 141.468 53.6281 142.248 53.939C143.08 54.1981 144.25 54.4312 145.758 54.6385L147.006 54.7939V56.5815L137.411 56.3484L127.815 56.5815Z" fill="black"/>
<path d="M191.375 57.2033C188.41 57.2033 185.732 56.4002 183.339 54.7939C180.947 53.1877 179.049 51.0115 177.644 48.2653C176.24 45.4673 175.538 42.3843 175.538 39.0164C175.538 35.6484 176.24 32.6173 177.644 29.9229C179.049 27.2286 180.973 25.0783 183.417 23.472C185.862 21.8658 188.618 21.0626 191.687 21.0626C193.871 21.0626 195.874 21.529 197.694 22.4616C199.514 23.3425 201.022 24.3529 202.219 25.4928V9.01574C202.219 6.32138 201.646 4.6115 200.502 3.88609C199.41 3.10887 197.876 2.72026 195.9 2.72026H195.353V0.93266C197.486 0.93266 199.54 0.880846 201.516 0.777218C203.493 0.621773 205.547 0.3627 207.68 0V47.8767C207.68 50.7783 208.226 52.6177 209.318 53.3949C210.462 54.1721 212.074 54.5608 214.155 54.5608V56.3484H210.956C209.812 56.3484 208.694 56.3743 207.602 56.4261C206.509 56.5297 205.287 56.7111 203.935 56.9701L202.921 51.5296C201.516 53.1877 199.826 54.5608 197.85 55.6489C195.926 56.6852 193.767 57.2033 191.375 57.2033ZM181.779 39.0164C181.779 42.0216 182.143 44.716 182.871 47.0995C183.651 49.4829 184.796 51.3742 186.304 52.7732C187.864 54.1721 189.814 54.8716 192.155 54.8716C194.391 54.8716 196.316 54.3794 197.928 53.3949C199.592 52.3586 201.022 51.1151 202.219 49.6643V28.6794C201.334 27.3322 200.008 26.1146 198.24 25.0264C196.472 23.9383 194.521 23.3943 192.389 23.3943C189.997 23.3943 188.02 24.0938 186.46 25.4928C184.9 26.84 183.729 28.7053 182.949 31.0888C182.169 33.4204 181.779 36.063 181.779 39.0164Z" fill="black"/>
<path d="M227.099 57.2033C224.602 57.2033 222.522 56.5815 220.858 55.338C219.245 54.0426 218.439 52.255 218.439 49.9752C218.439 47.6953 219.453 45.6746 221.482 43.9129C223.51 42.0993 225.877 40.4672 228.581 39.0164C230.609 37.8765 232.638 36.892 234.666 36.063C236.694 35.2339 238.437 34.5344 239.893 33.9645V31.4774C239.893 28.6276 239.347 26.5032 238.255 25.1042C237.214 23.7052 235.212 23.0057 232.248 23.0057C230.843 23.0057 229.465 23.187 228.113 23.5497C226.761 23.9124 226.085 24.586 226.085 25.5705C226.085 25.7778 226.111 26.0109 226.163 26.27C226.267 26.5291 226.345 26.7881 226.397 27.0472C226.657 27.7208 226.787 28.4203 226.787 29.1457C226.787 30.1302 226.423 30.9074 225.695 31.4774C225.018 31.9955 224.186 32.2546 223.198 32.2546C222.262 32.2546 221.482 31.9178 220.858 31.2442C220.234 30.5188 219.922 29.6639 219.922 28.6794C219.922 26.814 220.624 25.3373 222.028 24.2492C223.484 23.1093 225.252 22.3062 227.333 21.8398C229.413 21.3217 231.416 21.0626 233.34 21.0626C237.501 21.0626 240.543 22.0212 242.467 23.9383C244.392 25.8555 245.354 28.9903 245.354 33.3427V47.3326C245.354 49.6125 245.51 51.3742 245.822 52.6177C246.186 53.8613 246.966 54.483 248.162 54.483C248.943 54.483 249.619 54.1981 250.191 53.6281C250.763 53.0581 251.153 52.4364 251.361 51.7628L252.765 52.3068C252.349 53.8094 251.595 55.0012 250.503 55.882C249.463 56.7629 248.006 57.2033 246.134 57.2033C243.846 57.2033 242.259 56.5556 241.375 55.2603C240.543 53.9131 240.075 52.1514 239.971 49.9752C238.515 52.3068 236.668 54.0944 234.432 55.338C232.196 56.5815 229.751 57.2033 227.099 57.2033ZM224.524 49.5866C224.524 51.0374 224.94 52.2032 225.773 53.084C226.657 53.9131 227.931 54.3276 229.595 54.3276C231.103 54.3276 232.534 53.9649 233.886 53.2395C235.29 52.5141 236.512 51.6073 237.553 50.5192C238.593 49.3793 239.373 48.1617 239.893 46.8663V35.5189C238.177 36.2443 236.408 37.0992 234.588 38.0837C232.82 39.0164 231.155 40.0786 229.595 41.2703C228.087 42.4621 226.865 43.7574 225.929 45.1564C224.992 46.5036 224.524 47.9803 224.524 49.5866Z" fill="black"/>
<path d="M254.968 56.5815V54.7939L256.216 54.6385C257.724 54.4312 258.868 54.1981 259.649 53.939C260.481 53.6281 261.053 52.9804 261.365 51.9959C261.677 50.9596 261.833 49.2757 261.833 46.944V30.7779C261.833 28.7571 261.547 27.2804 260.975 26.3477C260.455 25.4151 259.675 24.8451 258.634 24.6378C257.594 24.3788 256.372 24.2492 254.968 24.2492V22.4616C257.1 22.4616 259.155 22.3839 261.131 22.2285C263.107 22.073 265.162 21.8398 267.294 21.529L266.436 30.467H266.748C267.892 26.9954 269.296 24.5601 270.961 23.1611C272.625 21.7621 274.419 21.0626 276.343 21.0626C278.528 21.0626 279.984 21.6067 280.712 22.6948C281.44 23.7311 281.804 24.7415 281.804 25.7259C281.804 26.8659 281.466 27.7985 280.79 28.5239C280.114 29.2493 279.204 29.612 278.06 29.612C276.968 29.612 276.135 29.353 275.563 28.8348C274.991 28.3167 274.705 27.7208 274.705 27.0472C274.705 26.5291 274.757 26.0368 274.861 25.5705C275.017 25.1042 275.095 24.7415 275.095 24.4824C275.095 23.9642 274.731 23.7052 274.003 23.7052C273.275 23.7052 272.495 24.042 271.663 24.7156C270.883 25.3891 270.206 26.3218 269.634 27.5135C269.166 28.498 268.724 29.5861 268.308 30.7779C267.892 31.9696 267.554 33.265 267.294 34.664V46.944C267.294 49.2757 267.45 50.9596 267.762 51.9959C268.074 52.9804 268.62 53.6281 269.4 53.939C270.232 54.1981 271.403 54.4312 272.911 54.6385L274.159 54.7939V56.5815L264.563 56.3484L254.968 56.5815Z" fill="black"/>
<path d="M300.028 57.2033C297.48 57.2033 295.4 56.452 293.787 54.9494C292.227 53.3949 291.447 50.8819 291.447 47.4103V24.4047H285.674V22.4616L287.78 22.3062C289.913 22.1507 291.525 21.2958 292.617 19.7414C293.761 18.1351 294.516 15.9071 294.88 13.0573H296.908V22.4616H306.894V24.4047H296.908V47.7212C296.908 52.2809 298.52 54.5608 301.745 54.5608C303.097 54.5608 304.189 54.1203 305.021 53.2395C305.853 52.3068 306.608 51.1669 307.284 49.8197L309 50.6747C308.688 51.4519 308.298 52.1773 307.83 52.8509C307.414 53.4727 306.998 54.0167 306.582 54.483C305.697 55.4675 304.683 56.167 303.539 56.5815C302.447 56.996 301.277 57.2033 300.028 57.2033Z" fill="black"/>
</svg>
